REM DIRINDEX 1\4,1\2\5,1\2\6,1\3\7,1\3\8
REM DIRNAME cjc124,folder01,folder02,folder03,folder04,folder05,folder06,folder07
TITLE ""
FILE "009_Day05_Check2_Phrases.mp3" MP3
  TRACK 01 AUDIO
    TITLE "0:"
    INDEX 01 00:00:00
  TRACK 02 AUDIO
    TITLE "4:cjc124_0265"
    INDEX 01 00:00:31
  TRACK 03 AUDIO
    TITLE "0:"
    INDEX 01 00:01:44
  TRACK 04 AUDIO
    TITLE "5:cjc124_0266"
    INDEX 01 00:02:14
  TRACK 05 AUDIO
    TITLE "0:"
    INDEX 01 00:04:15
  TRACK 06 AUDIO
    TITLE "6:cjc124_0267"
    INDEX 01 00:04:33
  TRACK 07 AUDIO
    TITLE "0:"
    INDEX 01 00:05:50
  TRACK 08 AUDIO
    TITLE "5:cjc124_0268"
    INDEX 01 00:06:22
  TRACK 09 AUDIO
    TITLE "0:"
    INDEX 01 00:07:60
  TRACK 10 AUDIO
    TITLE "6:cjc124_0269"
    INDEX 01 00:08:05
  TRACK 11 AUDIO
    TITLE "0:"
    INDEX 01 00:09:53
  TRACK 12 AUDIO
    TITLE "5:cjc124_0270"
    INDEX 01 00:10:19
  TRACK 13 AUDIO
    TITLE "0:"
    INDEX 01 00:12:05
  TRACK 14 AUDIO
    TITLE "6:cjc124_0271"
    INDEX 01 00:12:26
  TRACK 15 AUDIO
    TITLE "0:"
    INDEX 01 00:13:53
  TRACK 16 AUDIO
    TITLE "5:cjc124_0272"
    INDEX 01 00:14:23
  TRACK 17 AUDIO
    TITLE "0:"
    INDEX 01 00:16:08
  TRACK 18 AUDIO
    TITLE "6:cjc124_0273"
    INDEX 01 00:16:32
  TRACK 19 AUDIO
    TITLE "0:"
    INDEX 01 00:17:53
  TRACK 20 AUDIO
    TITLE "5:cjc124_0274"
    INDEX 01 00:18:25
  TRACK 21 AUDIO
    TITLE "0:"
    INDEX 01 00:20:18
  TRACK 22 AUDIO
    TITLE "6:cjc124_0275"
    INDEX 01 00:20:41
  TRACK 23 AUDIO
    TITLE "0:"
    INDEX 01 00:21:51
  TRACK 24 AUDIO
    TITLE "5:cjc124_0276"
    INDEX 01 00:22:30
  TRACK 25 AUDIO
    TITLE "0:"
    INDEX 01 00:24:33
  TRACK 26 AUDIO
    TITLE "6:cjc124_0277"
    INDEX 01 00:24:53
  TRACK 27 AUDIO
    TITLE "0:"
    INDEX 01 00:26:17
  TRACK 28 AUDIO
    TITLE "5:cjc124_0278"
    INDEX 01 00:26:62
  TRACK 29 AUDIO
    TITLE "0:"
    INDEX 01 00:28:35
  TRACK 30 AUDIO
    TITLE "6:cjc124_0279"
    INDEX 01 00:28:62
  TRACK 31 AUDIO
    TITLE "0:"
    INDEX 01 00:30:14
  TRACK 32 AUDIO
    TITLE "5:cjc124_0280"
    INDEX 01 00:30:59
  TRACK 33 AUDIO
    TITLE "0:"
    INDEX 01 00:32:35
  TRACK 34 AUDIO
    TITLE "6:cjc124_0281"
    INDEX 01 00:32:56
  TRACK 35 AUDIO
    TITLE "0:"
    INDEX 01 00:34:42
  TRACK 36 AUDIO
    TITLE "5:cjc124_0282"
    INDEX 01 00:35:04
  TRACK 37 AUDIO
    TITLE "0:"
    INDEX 01 00:36:42
  TRACK 38 AUDIO
    TITLE "6:cjc124_0283"
    INDEX 01 00:36:72
  TRACK 39 AUDIO
    TITLE "0:"
    INDEX 01 00:38:30
  TRACK 40 AUDIO
    TITLE "5:cjc124_0284"
    INDEX 01 00:38:69
  TRACK 41 AUDIO
    TITLE "0:"
    INDEX 01 00:40:56
  TRACK 42 AUDIO
    TITLE "6:cjc124_0285"
    INDEX 01 00:41:08
  TRACK 43 AUDIO
    TITLE "0:"
    INDEX 01 00:43:17
  TRACK 44 AUDIO
    TITLE "5:cjc124_0286"
    INDEX 01 00:43:58
  TRACK 45 AUDIO
    TITLE "0:"
    INDEX 01 00:45:47
  TRACK 46 AUDIO
    TITLE "6:cjc124_0287"
    INDEX 01 00:45:69
  TRACK 47 AUDIO
    TITLE "0:"
    INDEX 01 00:48:02
  TRACK 48 AUDIO
    TITLE "5:cjc124_0288"
    INDEX 01 00:48:48
  TRACK 49 AUDIO
    TITLE "0:"
    INDEX 01 00:50:11
  TRACK 50 AUDIO
    TITLE "6:cjc124_0289"
    INDEX 01 00:50:31
  TRACK 51 AUDIO
    TITLE "0:"
    INDEX 01 00:51:71
  TRACK 52 AUDIO
    TITLE "5:cjc124_0290"
    INDEX 01 00:52:47
  TRACK 53 AUDIO
    TITLE "0:"
    INDEX 01 00:54:23
  TRACK 54 AUDIO
    TITLE "6:cjc124_0291"
    INDEX 01 00:54:48
  TRACK 55 AUDIO
    TITLE "0:"
    INDEX 01 00:56:00
  TRACK 56 AUDIO
    TITLE "5:cjc124_0292"
    INDEX 01 00:56:43
  TRACK 57 AUDIO
    TITLE "0:"
    INDEX 01 00:58:20
  TRACK 58 AUDIO
    TITLE "6:cjc124_0293"
    INDEX 01 00:58:44
  TRACK 59 AUDIO
    TITLE "0:"
    INDEX 01 01:00:06
  TRACK 60 AUDIO
    TITLE "5:cjc124_0294"
    INDEX 01 01:00:43
  TRACK 61 AUDIO
    TITLE "0:"
    INDEX 01 01:02:32
  TRACK 62 AUDIO
    TITLE "6:cjc124_0295"
    INDEX 01 01:02:55
  TRACK 63 AUDIO
    TITLE "0:"
    INDEX 01 01:04:15
  TRACK 64 AUDIO
    TITLE "5:cjc124_0296"
    INDEX 01 01:04:64
  TRACK 65 AUDIO
    TITLE "0:"
    INDEX 01 01:06:26
  TRACK 66 AUDIO
    TITLE "6:cjc124_0297"
    INDEX 01 01:06:53
  TRACK 67 AUDIO
    TITLE "0:"
    INDEX 01 01:08:23
